<svg id="svg" xmlns="http://www.w3.org/2000/svg" xmlns:xlink="http://www.w3.org/1999/xlink" width="400" height="347.85276073619633" viewBox="0, 0, 400,347.85276073619633"><g id="svgg"><path id="path0" d="M190.491 8.420 C 56.125 13.442,-30.475 138.647,25.439 247.050 C 91.388 374.909,297.468 379.289,370.454 254.383 C 437.824 139.088,338.179 2.900,190.491 8.420 M220.245 14.172 C 349.947 25.368,426.347 151.660,365.137 253.681 C 300.634 361.191,127.358 371.106,47.466 271.858 C -45.275 156.649,59.557 0.300,220.245 14.172 M189.877 43.927 C 64.919 51.534,3.537 182.412,86.110 265.181 C 165.901 345.161,315.826 314.083,346.348 211.235 C 372.508 123.086,292.627 37.672,189.877 43.927 M212.301 49.104 C 334.211 58.531,390.709 188.772,306.197 265.558 C 214.103 349.234,53.736 292.983,53.709 176.994 C 53.691 101.558,126.923 42.503,212.301 49.104 M182.822 57.783 C 182.822 59.104,185.307 81.260,185.613 82.669 C 185.913 84.048,185.927 84.049,198.979 84.049 L 212.046 84.049 213.421 71.626 C 214.177 64.793,214.891 58.719,215.009 58.129 C 215.208 57.128,214.123 57.055,199.022 57.055 C 186.940 57.055,182.822 57.240,182.822 57.783 M227.382 65.184 C 226.542 67.968,224.865 73.540,223.654 77.566 C 222.442 81.593,221.663 85.072,221.922 85.297 C 222.460 85.766,243.072 92.054,245.399 92.458 C 246.838 92.709,259.333 70.047,258.257 69.139 C 256.428 67.597,233.015 60.123,230.014 60.123 C 229.162 60.123,228.559 61.283,227.382 65.184 M161.604 61.265 C 161.784 61.556,158.797 62.798,154.968 64.026 C 151.138 65.254,146.435 66.952,144.516 67.801 L 141.027 69.344 146.976 80.838 C 150.248 87.159,153.154 92.583,153.434 92.891 C 153.731 93.219,156.175 92.421,159.333 90.965 C 164.592 88.540,171.820 86.513,175.274 86.494 C 178.740 86.475,178.741 86.246,175.305 74.664 L 172.086 63.814 170.092 64.184 C 168.191 64.537,168.098 64.465,168.098 62.645 C 168.098 60.738,168.095 60.736,164.688 60.736 C 162.812 60.736,161.424 60.974,161.604 61.265 M209.596 63.037 C 209.429 63.627,208.945 67.492,208.520 71.626 L 207.747 79.141 198.993 79.141 L 190.240 79.141 189.905 77.147 C 189.372 73.975,188.344 64.890,188.344 63.360 L 188.344 61.963 199.121 61.963 C 209.092 61.963,209.876 62.044,209.596 63.037 M168.343 68.865 C 168.862 70.637,169.948 74.293,170.755 76.991 L 172.222 81.896 168.203 82.708 C 165.993 83.155,162.533 84.191,160.514 85.012 C 158.495 85.832,156.541 86.503,156.170 86.503 C 155.542 86.503,148.466 73.031,148.466 71.836 C 148.466 71.276,164.162 66.074,166.981 65.700 C 167.210 65.669,167.823 67.094,168.343 68.865 M246.166 69.664 C 252.547 71.750,252.391 70.805,247.832 79.747 L 244.129 87.009 239.396 85.525 C 236.793 84.708,233.144 83.595,231.288 83.050 C 229.433 82.504,227.849 82.004,227.770 81.938 C 227.644 81.833,231.481 68.349,232.175 66.462 C 232.473 65.650,237.182 66.727,246.166 69.664 M268.070 77.149 C 266.930 78.751,263.295 83.705,259.992 88.158 C 252.953 97.650,253.174 96.788,257.217 98.982 C 258.984 99.941,263.984 103.106,268.328 106.016 L 276.227 111.307 285.709 101.592 L 295.191 91.878 293.147 89.741 C 291.226 87.730,279.162 79.436,272.955 75.858 L 270.144 74.237 268.070 77.149 M116.113 82.834 C 111.131 86.216,106.365 89.529,105.521 90.199 L 103.988 91.416 108.302 95.555 C 126.904 113.398,124.526 112.094,130.034 107.469 C 133.874 104.245,142.149 98.897,144.979 97.811 C 145.586 97.578,145.949 97.039,145.785 96.613 C 145.527 95.940,133.783 79.807,132.428 78.264 C 132.124 77.919,131.291 78.034,130.315 78.556 C 128.838 79.346,128.610 79.304,127.597 78.053 C 126.015 76.100,126.070 76.077,116.113 82.834 M134.042 88.699 C 136.650 92.254,138.685 95.230,138.564 95.312 C 138.443 95.395,136.412 96.690,134.052 98.191 C 131.691 99.692,128.789 101.790,127.602 102.854 L 125.445 104.787 118.704 98.451 C 110.870 91.088,110.645 92.478,120.776 85.649 C 125.931 82.174,127.951 81.116,128.524 81.592 C 128.950 81.946,131.433 85.144,134.042 88.699 M277.850 84.632 C 281.091 86.640,284.709 89.106,285.890 90.112 L 288.037 91.941 281.913 98.118 C 274.821 105.271,275.697 104.961,271.263 101.888 C 269.354 100.564,266.236 98.556,264.334 97.425 L 260.877 95.369 266.174 88.175 C 269.087 84.219,271.580 80.982,271.714 80.982 C 271.848 80.982,274.610 82.624,277.850 84.632 M95.337 103.403 C 94.973 104.854,94.868 104.895,93.859 103.982 C 92.842 103.062,92.402 103.458,86.903 110.242 C 83.675 114.226,80.038 118.652,78.820 120.079 L 76.608 122.673 89.572 129.128 C 105.072 136.845,103.308 136.710,107.527 130.498 C 109.427 127.701,112.816 123.263,115.057 120.636 C 117.298 118.009,119.038 115.782,118.922 115.687 C 118.806 115.592,115.261 113.226,111.043 110.429 C 106.825 107.633,103.268 105.256,103.138 105.146 C 103.008 105.036,103.359 104.247,103.919 103.393 L 104.936 101.840 100.333 101.840 C 95.911 101.840,95.713 101.902,95.337 103.403 M291.411 108.937 C 278.455 117.485,279.388 116.576,281.334 118.755 C 284.775 122.609,289.991 129.350,292.331 132.965 C 295.333 137.602,293.648 137.776,306.234 131.534 C 318.694 125.355,317.455 126.201,316.454 124.561 C 315.729 123.374,315.822 123.081,317.350 121.753 L 319.057 120.271 317.727 117.665 C 314.560 111.457,305.487 101.823,302.831 101.847 C 302.455 101.850,297.316 105.041,291.411 108.937 M174.437 106.657 C 168.669 108.651,167.877 109.649,157.209 128.367 C 151.725 137.988,147.239 146.136,147.239 146.473 C 147.239 146.811,149.741 148.531,152.798 150.295 C 155.856 152.060,158.268 153.593,158.158 153.703 C 158.048 153.813,151.064 154.769,142.638 155.828 C 134.212 156.887,127.232 157.839,127.128 157.943 C 127.024 158.048,129.168 159.440,131.894 161.038 L 136.849 163.943 135.719 165.867 C 124.497 184.975,124.276 187.128,132.183 200.307 C 133.600 202.669,135.557 206.120,136.532 207.975 C 142.437 219.221,148.910 230.010,149.772 230.046 C 149.984 230.054,149.894 228.826,149.572 227.315 C 148.775 223.575,149.788 219.147,152.664 213.804 C 156.198 207.239,168.787 185.067,169.461 184.222 C 170.078 183.447,173.254 184.803,177.761 187.767 C 178.857 188.488,179.755 188.832,179.755 188.532 C 179.755 187.916,173.943 173.577,170.851 166.564 C 170.404 165.552,169.472 163.395,168.779 161.770 L 167.519 158.817 169.496 160.024 C 176.117 164.067,178.906 165.641,179.448 165.641 C 179.785 165.641,186.825 153.701,195.092 139.109 C 207.530 117.154,210.723 111.968,213.601 109.049 L 217.080 105.521 197.344 105.542 C 180.023 105.559,177.219 105.696,174.437 106.657 M217.365 109.140 C 215.482 111.059,211.910 116.500,207.479 124.200 L 200.540 136.255 203.420 141.287 C 205.004 144.055,206.395 146.492,206.513 146.703 C 206.630 146.914,204.454 148.420,201.676 150.051 L 196.626 153.015 199.080 153.475 C 201.868 153.998,226.229 157.055,227.605 157.055 C 228.688 157.055,225.639 159.147,220.399 162.000 C 218.290 163.148,216.580 164.230,216.599 164.405 C 216.618 164.581,220.288 171.074,224.755 178.834 L 232.877 192.945 247.573 192.945 L 262.270 192.945 265.951 191.104 L 269.632 189.264 269.632 184.663 L 269.632 180.061 259.816 162.932 C 254.417 153.511,249.715 145.709,249.366 145.594 C 249.018 145.479,246.221 146.869,243.152 148.683 L 237.572 151.981 239.575 147.003 C 242.338 140.135,246.142 131.080,248.092 126.731 C 250.297 121.812,250.107 121.713,244.580 124.920 C 241.937 126.454,239.706 127.617,239.623 127.505 C 239.540 127.392,237.733 124.126,235.608 120.245 C 228.161 106.652,222.931 103.467,217.365 109.140 M104.114 111.846 L 111.529 116.638 107.758 121.665 C 105.685 124.430,103.564 127.344,103.047 128.141 L 102.106 129.591 93.341 125.378 L 84.576 121.166 90.294 113.996 C 93.439 110.053,96.167 106.879,96.355 106.941 C 96.544 107.004,100.035 109.211,104.114 111.846 M308.676 113.248 C 310.823 115.820,314.110 120.972,314.110 121.765 C 314.110 122.193,297.966 130.061,297.089 130.061 C 296.780 130.061,295.602 128.750,294.471 127.147 C 293.339 125.544,291.336 122.924,290.019 121.324 C 286.970 117.621,286.760 117.975,295.389 112.302 L 302.724 107.480 304.583 109.025 C 305.605 109.875,307.447 111.775,308.676 113.248 M206.135 110.108 C 206.135 110.269,201.207 119.035,195.185 129.587 C 189.162 140.139,182.914 151.120,181.301 153.988 C 179.688 156.856,178.282 159.301,178.176 159.423 C 177.560 160.132,153.347 145.127,153.686 144.245 C 154.151 143.032,167.024 120.337,169.463 116.428 C 171.542 113.097,174.248 111.215,178.027 110.472 C 180.795 109.927,206.135 109.599,206.135 110.108 M224.853 112.540 C 226.124 113.509,228.742 117.519,232.273 123.902 C 237.118 132.659,237.881 133.730,239.073 133.445 C 240.333 133.144,240.244 133.535,237.639 139.722 C 236.111 143.350,234.264 147.768,233.535 149.539 C 231.998 153.269,232.663 153.133,222.367 151.839 C 210.746 150.379,210.561 150.336,211.833 149.406 C 212.834 148.674,212.662 148.179,209.477 142.664 C 207.587 139.391,206.184 136.340,206.359 135.885 C 207.297 133.438,218.734 114.166,220.098 112.730 C 222.058 110.668,222.382 110.655,224.853 112.540 M311.304 136.916 L 297.761 141.261 300.648 149.618 C 302.236 154.215,303.864 159.563,304.265 161.503 C 305.131 165.688,304.175 165.513,316.942 163.818 C 330.777 161.982,329.889 162.236,329.589 160.194 C 329.355 158.599,329.531 158.403,331.537 158.027 C 333.670 157.627,335.194 152.147,333.172 152.147 C 332.859 152.147,332.145 150.560,331.587 148.620 C 330.178 143.729,325.763 132.509,325.260 132.543 C 325.033 132.558,318.752 134.526,311.304 136.916 M71.166 136.457 C 71.166 138.022,70.343 142.071,69.338 145.454 C 67.581 151.369,65.334 161.885,65.750 162.248 C 66.318 162.744,94.182 166.176,94.508 165.790 C 94.718 165.541,95.499 162.358,96.243 158.716 C 96.987 155.074,98.376 149.891,99.329 147.198 C 100.282 144.505,100.892 142.200,100.684 142.075 C 100.477 141.951,94.125 140.139,86.570 138.050 C 79.015 135.961,72.458 134.107,71.999 133.931 C 71.371 133.690,71.166 134.310,71.166 136.457 M323.207 139.724 C 324.648 142.534,327.708 152.571,327.805 154.805 L 327.914 157.316 318.494 158.602 C 312.161 159.466,309.020 159.674,308.910 159.238 C 308.820 158.881,307.742 155.440,306.514 151.592 C 305.286 147.743,304.353 144.533,304.441 144.457 C 304.769 144.178,321.194 138.780,321.911 138.716 C 322.321 138.680,322.904 139.133,323.207 139.724 M85.583 142.868 C 90.307 144.163,94.165 145.470,94.157 145.771 C 94.137 146.516,90.724 160.383,90.505 160.612 C 90.332 160.792,71.592 158.282,71.344 158.045 C 70.758 157.487,75.838 140.482,76.584 140.502 C 76.809 140.508,80.859 141.573,85.583 142.868 M257.037 167.480 C 266.628 184.441,267.039 185.791,263.105 187.431 C 259.510 188.929,236.890 189.612,235.764 188.256 C 232.497 184.318,222.874 165.902,223.811 165.378 C 224.381 165.060,229.943 161.814,236.172 158.164 C 245.050 152.964,247.648 151.696,248.192 152.299 C 248.573 152.721,252.554 159.553,257.037 167.480 M165.521 165.798 C 171.215 179.401,170.757 177.923,169.223 177.755 C 167.907 177.610,159.531 191.286,149.101 210.606 L 146.191 215.996 138.667 202.460 L 131.143 188.923 131.407 185.412 C 131.640 182.309,132.336 180.769,137.397 172.143 C 142.767 162.989,143.052 162.332,141.996 161.560 C 141.377 161.107,141.130 160.713,141.447 160.685 C 141.765 160.656,145.613 160.137,150.000 159.532 C 154.387 158.926,158.965 158.398,160.175 158.357 L 162.375 158.282 165.521 165.798 M64.564 180.521 C 64.732 184.992,65.365 191.342,65.970 194.632 L 67.071 200.613 68.965 200.588 C 71.742 200.551,95.612 197.230,96.018 196.825 C 96.208 196.635,95.801 193.358,95.114 189.544 C 94.427 185.729,93.865 180.309,93.865 177.500 L 93.865 172.393 79.061 172.393 L 64.257 172.393 64.564 180.521 M306.116 178.988 C 306.099 185.066,305.346 193.360,304.597 195.717 C 304.307 196.632,332.060 202.609,332.737 201.778 C 333.238 201.161,335.108 185.487,335.419 179.294 L 335.765 172.393 320.950 172.393 L 306.135 172.393 306.116 178.988 M88.990 180.215 C 89.007 181.817,89.377 185.294,89.810 187.941 C 90.370 191.357,90.405 192.808,89.931 192.942 C 88.013 193.486,71.683 195.200,71.373 194.890 C 70.760 194.277,70.031 189.558,69.580 183.282 L 69.150 177.301 79.053 177.301 L 88.957 177.301 88.990 180.215 M330.675 179.416 C 330.675 181.417,328.930 195.814,328.654 196.090 C 328.583 196.162,324.522 195.483,319.630 194.582 L 310.736 192.944 310.767 190.644 C 310.784 189.379,310.853 185.859,310.920 182.822 L 311.043 177.301 320.859 177.301 L 330.675 177.301 330.675 179.416 M209.202 198.577 L 199.693 211.350 199.520 204.438 L 199.346 197.526 182.684 197.690 L 166.022 197.853 160.581 207.362 C 150.378 225.196,149.186 230.728,154.834 234.038 L 157.470 235.583 178.408 235.583 L 199.346 235.583 199.520 228.816 L 199.693 222.049 209.202 234.763 L 218.712 247.477 218.888 241.836 L 219.064 236.196 228.173 236.196 C 241.557 236.196,245.994 234.305,249.962 226.907 C 250.932 225.099,255.029 217.989,259.065 211.108 C 265.356 200.381,269.325 192.863,269.325 191.671 C 269.325 191.496,268.290 192.170,267.025 193.169 C 262.301 196.897,260.576 197.156,238.827 197.414 L 219.064 197.648 218.888 191.727 L 218.712 185.805 209.202 198.577 M236.854 201.986 L 258.901 202.147 252.503 213.190 C 241.380 232.386,242.960 231.288,226.447 231.288 C 214.884 231.288,214.808 231.297,214.613 232.653 C 214.458 233.733,213.094 232.238,208.097 225.510 C 204.621 220.830,201.914 216.645,202.081 216.209 C 203.073 213.624,214.435 199.456,214.612 200.583 C 214.803 201.800,215.252 201.829,236.854 201.986 M195.092 216.564 L 195.092 231.288 177.329 231.288 C 151.948 231.288,152.233 231.688,163.413 211.813 L 169.018 201.847 182.055 201.844 L 195.092 201.840 195.092 216.564 M83.594 206.928 C 74.381 209.913,69.946 211.630,69.943 212.213 C 69.939 213.097,81.876 236.687,82.814 237.648 C 83.310 238.156,90.566 234.707,102.845 228.126 L 108.450 225.123 104.916 218.236 C 102.973 214.449,100.614 209.348,99.674 206.902 C 98.734 204.456,97.802 202.466,97.602 202.480 C 97.403 202.495,91.099 204.496,83.594 206.928 M298.543 208.593 C 297.235 211.972,294.820 217.083,293.175 219.952 C 290.002 225.485,289.883 225.767,290.715 225.767 C 291.007 225.767,296.367 228.252,302.627 231.288 C 316.045 237.798,316.317 237.840,319.263 233.827 C 323.664 227.831,329.344 212.007,327.692 210.341 C 327.477 210.124,321.641 208.358,314.724 206.418 C 307.807 204.478,301.871 202.791,301.534 202.670 C 301.196 202.549,299.850 205.215,298.543 208.593 M96.573 212.730 C 97.537 215.008,99.087 218.263,100.016 219.963 L 101.705 223.055 93.524 227.307 C 89.024 229.646,85.225 231.429,85.082 231.270 C 83.988 230.057,76.638 215.180,76.967 214.845 C 77.308 214.497,93.385 208.803,94.495 208.637 C 94.673 208.611,95.608 210.452,96.573 212.730 M314.110 211.388 C 318.666 212.631,322.457 213.701,322.535 213.766 C 322.838 214.017,320.345 221.957,319.333 223.961 C 317.673 227.250,315.074 231.286,314.617 231.287 C 313.994 231.289,297.546 223.243,297.546 222.937 C 297.546 222.791,298.612 220.539,299.915 217.931 C 301.218 215.324,302.623 212.144,303.038 210.866 C 303.590 209.164,304.064 208.620,304.810 208.835 C 305.370 208.997,309.555 210.146,314.110 211.388 M276.687 240.334 L 267.791 249.159 271.497 252.647 C 290.966 270.974,287.731 269.519,294.550 263.016 C 301.089 256.780,309.202 248.120,309.202 247.376 C 309.202 246.871,286.102 231.141,285.739 231.399 C 285.653 231.460,281.580 235.481,276.687 240.334 M100.333 239.704 L 88.703 247.414 96.975 255.455 C 101.525 259.878,106.640 264.654,108.341 266.069 L 111.435 268.641 121.133 258.928 C 127.509 252.543,130.671 248.956,130.362 248.457 C 130.104 248.039,128.758 246.703,127.370 245.487 C 125.982 244.271,122.208 240.717,118.982 237.589 C 115.756 234.461,112.858 231.923,112.540 231.948 C 112.223 231.974,106.730 235.464,100.333 239.704 M123.313 249.061 C 123.313 249.253,120.574 252.139,117.225 255.474 L 111.138 261.539 109.097 259.852 C 104.740 256.252,96.925 248.230,97.377 247.823 C 97.639 247.586,100.999 245.306,104.844 242.755 L 111.836 238.116 117.574 243.414 C 120.731 246.328,123.313 248.869,123.313 249.061 M295.859 244.065 C 299.149 246.251,301.840 248.210,301.840 248.417 C 301.840 248.624,298.873 251.736,295.245 255.331 L 288.650 261.868 281.902 255.459 L 275.153 249.049 280.982 243.593 C 286.745 238.197,286.827 238.148,288.344 239.114 C 289.187 239.651,292.569 241.879,295.859 244.065 M134.129 258.120 C 131.955 261.077,128.236 266.120,125.864 269.325 L 121.553 275.153 123.813 276.568 C 130.341 280.653,148.931 288.740,149.795 287.870 C 150.040 287.625,152.891 282.261,156.132 275.951 L 162.025 264.478 158.773 263.094 C 156.985 262.333,151.598 259.693,146.802 257.227 L 138.082 252.743 134.129 258.120 M257.362 254.983 C 253.145 257.944,247.038 260.983,242.638 262.309 C 240.613 262.920,238.720 263.618,238.431 263.862 C 238.141 264.105,240.143 268.730,242.878 274.139 C 246.671 281.637,247.853 284.566,247.853 286.466 C 247.853 289.531,247.492 289.544,255.921 286.171 C 266.491 281.941,278.163 275.874,277.789 274.805 C 277.293 273.387,261.635 252.765,261.076 252.795 C 260.720 252.813,259.049 253.798,257.362 254.983 M147.489 263.283 L 155.190 267.056 151.235 274.479 C 148.173 280.225,147.033 281.854,146.186 281.688 C 144.366 281.332,130.156 274.782,129.554 274.022 C 129.087 273.432,138.702 259.509,139.575 259.509 C 139.692 259.509,143.253 261.207,147.489 263.283 M265.546 266.273 C 268.299 269.993,270.552 273.260,270.552 273.533 C 270.552 274.021,256.085 281.141,253.668 281.842 C 251.886 282.360,244.123 267.070,245.853 266.450 C 250.346 264.840,252.992 263.631,256.159 261.739 C 258.171 260.538,259.979 259.545,260.178 259.532 C 260.377 259.520,262.793 262.553,265.546 266.273 M216.423 268.878 C 204.268 270.660,203.718 270.799,203.991 272.027 C 204.148 272.734,204.863 278.696,205.580 285.276 C 206.298 291.856,206.988 297.351,207.115 297.487 C 208.009 298.446,237.811 292.752,237.650 291.653 C 237.225 288.758,230.254 266.888,229.774 266.943 C 229.426 266.982,223.418 267.853,216.423 268.878 M169.024 268.865 C 167.633 272.925,161.837 293.326,162.025 293.501 C 162.755 294.182,192.263 297.539,192.609 296.980 C 192.822 296.634,193.639 290.928,194.423 284.299 C 195.953 271.366,195.933 271.197,192.842 271.175 C 192.111 271.170,187.142 270.478,181.799 269.638 C 170.666 267.887,169.385 267.810,169.024 268.865 M229.253 280.521 L 231.697 288.650 228.578 289.393 C 225.508 290.124,213.586 292.025,212.068 292.025 C 211.384 292.025,208.843 275.615,209.435 275.023 C 209.617 274.841,224.048 272.586,225.828 272.461 C 226.571 272.409,227.404 274.371,229.253 280.521 M181.902 274.629 C 185.951 275.185,189.506 275.855,189.802 276.119 C 190.386 276.638,189.127 290.143,188.383 291.347 C 188.016 291.941,168.989 290.052,168.289 289.352 C 168.182 289.245,171.960 276.394,172.689 274.387 C 173.041 273.417,173.082 273.418,181.902 274.629 " stroke="none" fill="#000000" fill-rule="evenodd"></path></g></svg>